<svg width="1024" height="1024" viewBox="0 0 1024 1024" fill="none" xmlns="http://www.w3.org/2000/svg">
<path d="M374 377L388.5 270.5L409 247.5L420.5 262L429 263C429 263 437 250.5 437 252C437 253.5 436.971 273.607 434 287C430.693 301.904 420 323.5 420 323.5L432.5 348.5L416.5 364L413 383.5L397 404.5L377.5 419.5L363 428.5L350 425L342 413.5L374 377Z" fill="white" fill-opacity="0.2"/>
<path d="M598.5 196L662 216L722.5 242.5L714 389.5L678 380L633.5 362.5L579 330L590 230.5L598.5 196Z" fill="white" fill-opacity="0.1"/>
</svg>
